<svg xmlns="http://www.w3.org/2000/svg" viewBox="0 0 844 678">
  <defs>
    <style>
      .a, .d {
        fill: #fff;
      }

      .a, .b {
        opacity: 0;
      }

      .b, .c {
        stroke: #000;
      }

      .c {
        fill: none;
        stroke-width: 0.25px;
      }

      .d {
        font-size: 21px;
        font-family: FiraSans-Bold, Fira Sans;
        font-weight: 700;
      }

      .e {
        letter-spacing: -0.01em;
      }

      .f {
        letter-spacing: -0.01em;
      }

      .g {
        letter-spacing: -0.02em;
      }

      .h {
        letter-spacing: -0.02em;
      }

      .i {
        letter-spacing: -0.02em;
      }
    </style>
  </defs>
  <rect class="a" width="844" height="678"/>
  <rect class="b" x="14.64" y="13.72" width="815.04" height="583.2"/>
  <g>
    <circle class="c" cx="149.41" cy="110.68" r="49.48"/>
    <circle class="c" cx="318.99" cy="157.82" r="49.48"/>
    <circle class="c" cx="109.24" cy="271.59" r="49.48"/>
  </g>
  <g>
    <rect class="c" x="430.98" y="26.29" width="73.7" height="43.23" rx="5.19"/>
    <rect class="c" x="575.46" y="26.29" width="73.7" height="43.23" rx="5.19"/>
    <rect class="c" x="718.74" y="26.29" width="73.7" height="43.23" rx="5.19"/>
    <rect class="c" x="756.59" y="127.69" width="73.7" height="43.23" rx="5.19" transform="translate(942.74 -644.14) rotate(90)"/>
    <rect class="c" x="756.59" y="275.89" width="73.7" height="43.23" rx="5.19" transform="translate(1090.95 -495.93) rotate(90)"/>
  </g>
  <g>
    <rect class="c" x="479.59" y="147.25" width="59.66" height="59.66" rx="7.87" transform="translate(274.42 -308.35) rotate(45)"/>
    <rect class="c" x="627.43" y="147.25" width="59.66" height="59.66" rx="7.87" transform="translate(317.73 -412.89) rotate(45)"/>
    <rect class="c" x="627.43" y="273.49" width="59.66" height="59.66" rx="7.87" transform="translate(406.99 -375.91) rotate(45)"/>
    <rect class="c" x="479.59" y="273.49" width="59.66" height="59.66" rx="7.87" transform="translate(363.69 -271.37) rotate(45)"/>
  </g>
  <text class="d" transform="translate(139.02 117.98)"><tspan class="e">0</tspan><tspan x="12.05" y="0">2</tspan></text>
  <text class="d" transform="translate(309.88 165.5)"><tspan class="f">0</tspan><tspan x="12.08" y="0">3</tspan></text>
  <text class="d" transform="translate(99.94 279.98)"><tspan class="g">0</tspan><tspan x="11.82" y="0">1</tspan></text>
  <text class="d" transform="translate(457.41 55.48)">04</text>
  <text class="d" transform="translate(601.89 55.48)">05</text>
  <text class="d" transform="translate(745.17 55.48)">06</text>
  <text class="d" transform="translate(781.78 157.82)"><tspan class="h">0</tspan><tspan x="11.86" y="0">7</tspan></text>
  <text class="d" transform="translate(780.98 305.68)">08</text>
  <text class="d" transform="translate(648.16 310.42)"><tspan class="f">0</tspan><tspan x="12.08" y="0">9</tspan></text>
  <text class="d" transform="translate(497.94 310.39)">10</text>
  <text class="d" transform="translate(648.16 186.17)">12</text>
  <text class="d" transform="translate(497.94 186.14)"><tspan class="i">1</tspan><tspan x="9.36" y="0">1</tspan></text>
</svg>
