<?xml version="1.0" encoding="utf-8"?>
<!-- Generator: Adobe Illustrator 25.2.1, SVG Export Plug-In . SVG Version: 6.00 Build 0)  -->
<svg version="1.1" id="Layer_1" xmlns="http://www.w3.org/2000/svg" xmlns:xlink="http://www.w3.org/1999/xlink" x="0px" y="0px"
	 viewBox="0 0 2334.6 525.6" style="enable-background:new 0 0 2334.6 525.6;" xml:space="preserve">
<style type="text/css">
	.st0{fill:#FF740D;}
	.st1{fill:#303030;}
</style>
<path class="st0" d="M374.2,7.7c-28.9,6.7-56.7,17.6-82.4,32.5c-89.4,51.7-146,145.8-149.8,249c-46.5-12.9-89.2-36.8-124.4-69.8
	c21.1-75.6,71-139.9,139-179.2c21.3-12.3,44-22,67.6-28.7C273.1-2.4,324.7-3.7,374.2,7.7L374.2,7.7z"/>
<path class="st0" d="M355.7,309.4C311.1,462.2,155.1,553.6,0,517.9c131.6-30.5,226.7-145.2,232.1-280.2
	C278.5,251.3,320.9,275.9,355.7,309.4z"/>
<path class="st1" d="M523.9,218.6c0-17.1,8-31.7,24-43.6c15.5-11.3,33.9-17,55.3-17h28.5c17.5,0,34.7,4.1,50.3,12
	c5.9,3,11.4,6.7,16.2,11.2l-37.5,28.8c-5.8-8.4-15-13.8-25.1-14.8c-1.3-0.2-2.6-0.3-3.9-0.3h-28.5c-14,0-24.5,3.9-31.6,11.7
	c-3.2,3.9-4.8,7.9-4.8,12c0,7.3,7.7,13.5,23.2,18.7c4.8,1.7,13,4,24.6,7c28,7.3,47.5,14.3,58.7,21.2c18.3,11.2,27.5,25.9,27.7,44.2
	c0,16.9-8.2,31.4-24.6,43.3c-16.2,11.6-35.4,17.3-57.6,17.3h-28.5c-18.2,0-36.1-4.1-52.5-12c-7.1-3.5-12.7-7.3-16.8-11.2l36.9-28.5
	c6.5,8.2,15.6,13,27.4,14.5c1.7,0.2,3.3,0.3,5,0.3h28.5c15.1,0,26.5-4,34.1-12c3.3-3.7,5-7.6,5-11.7c0-8.2-7.7-15-23.2-20.4
	c-2.2-0.9-15.7-4.7-40.5-11.5c-28.4-7.6-47.8-16.9-58.1-27.7C528.2,241.7,523.8,230.4,523.9,218.6z"/>
<path class="st1" d="M835.8,250.2l59.2-92.2h45.8l-62.6,100.6c-7.5,11.6-14.3,19.7-20.7,24.3v87.5h-43v-86.9
	c-7.3-5.2-14.4-13.5-21.5-24.9L730.8,158h45.8L835.8,250.2z"/>
<path class="st1" d="M1017.2,156.6c15.6,0,28.3,9.1,38,27.4c1.5,3,3.1,6.3,4.8,10.1l59.5,140.3V158h42.8v176.3
	c0,11.9-5.7,21.7-17.1,29.3c-7.6,5.3-16.7,8.1-26,8.1c-15.6,0-28.3-9.1-38-27.4c-1.5-3-3.1-6.3-4.8-10.1L1017,194v176.3h-42.8V194
	c0-11.9,5.7-21.7,17.1-29.3C998.9,159.4,1008,156.6,1017.2,156.6z"/>
<path class="st1" d="M1271,158l-22.9,36.9h-42.2V158H1271z M1306,370.4h-43V195.4c0-12.5,5.4-22.4,16.2-29.9
	c7.1-5,15.6-7.6,24.3-7.5h63.4v36.9H1306L1306,370.4z"/>
<path class="st0" d="M1452.7,194.9v175.5H1410V195.4c0-12.7,5.4-22.7,16.2-30.2c7.1-4.8,15.5-7.3,24-7.3h57.8
	c25.9,0,46.7,7.7,62.3,23.2c13.2,13.2,19.8,29.5,19.8,48.9v8.1c0,24.2-9.6,43-28.8,56.5c-7.3,5.1-15.4,8.9-24,11.5l57.6,64.3h-53.3
	l-53.1-60.1h-33l22.9-36.9h29.6c17.5,0,29.3-6.1,35.5-18.2c2.5-5.3,3.7-11.2,3.6-17v-8.1c0-16.8-7.5-27.7-22.6-32.7
	c-5.3-1.7-10.9-2.6-16.5-2.5L1452.7,194.9z"/>
<path class="st1" d="M1775.5,342.2h-93.1l22.9-36.9h57.3L1726.4,201l-59.2,169.3h-45.8l62.3-177.7c9.1-24.8,23.4-37.3,42.8-37.4
	c19.4,0.2,33.5,12.7,42.5,37.4l62.6,177.7h-45.8L1775.5,342.2z"/>
<path class="st1" d="M1912.8,333.5h101.2l19.8,36.9h-123.5c-13.8,0-24.7-5.2-32.7-15.7c-4.9-6.2-7.6-13.9-7.5-21.8V158h42.8V333.5z"
	/>
<path class="st1" d="M2066.3,158h42.8v212.4h-42.8V158z"/>
<path class="st1" d="M2157.4,218.6c0-17.1,8-31.7,24-43.6c15.5-11.3,33.9-17,55.3-17h28.5c17.5,0,34.7,4.1,50.3,12
	c5.9,3,11.4,6.7,16.2,11.2l-37.4,28.8c-5.8-8.4-15-13.8-25.1-14.8c-1.3-0.2-2.6-0.3-3.9-0.3h-28.5c-14,0-24.5,3.9-31.6,11.7
	c-3.2,3.9-4.8,7.9-4.8,12c0,7.3,7.7,13.5,23.2,18.7c4.8,1.7,13,4,24.6,7c27.9,7.3,47.5,14.3,58.7,21.2
	c18.3,11.2,27.5,25.9,27.7,44.2c0,16.9-8.2,31.4-24.6,43.3c-16.2,11.6-35.4,17.3-57.6,17.3h-28.5c-18.2,0-36.1-4.1-52.5-12
	c-7.1-3.6-12.7-7.3-16.8-11.2l36.9-28.5c6.5,8.2,15.6,13,27.4,14.5c1.7,0.2,3.3,0.3,5,0.3h28.5c15.1,0,26.5-4,34.1-12
	c3.3-3.7,5-7.6,5-11.7c0-8.2-7.7-15-23.2-20.4c-2.2-0.9-15.7-4.7-40.5-11.5c-28.5-7.6-47.9-16.9-58.1-27.7
	C2161.6,241.7,2157.2,230.3,2157.4,218.6z"/>
</svg>
